<?xml version="1.0" encoding="utf-8"?>
<!-- Generator: Adobe Illustrator 27.3.1, SVG Export Plug-In . SVG Version: 6.00 Build 0)  -->
<svg version="1.1" id="Ebene_1" xmlns="http://www.w3.org/2000/svg" xmlns:xlink="http://www.w3.org/1999/xlink" x="0px" y="0px"
	 viewBox="0 0 113.4 56.7" style="enable-background:new 0 0 113.4 56.7;" xml:space="preserve">
<style type="text/css">
	.st0{fill:#009DD3;}
</style>
<g>
	<path class="st0" d="M12.1,27.2c-0.9,0-1.1,0.9-1.1,1.7c0,0.8,0.2,1.7,1.1,1.7c0.9,0,1.1-0.9,1.1-1.7C13.2,28.1,13,27.2,12.1,27.2
		 M8.5,23H11v3.2h0c0.4-0.6,1.1-0.9,1.8-0.9c2.2,0,2.8,1.9,2.8,3.5c0,1.7-0.9,3.5-2.8,3.5c-1.2,0-1.6-0.5-2-0.9h0v0.7H8.5V23z"/>
</g>
<rect x="18.9" y="23" class="st0" width="2.6" height="9.2"/>
<g>
	<path class="st0" d="M29,29.2c-0.3,0.2-0.7,0.2-1,0.3c-0.6,0.1-0.9,0.3-0.9,0.7c0,0.3,0.3,0.6,0.8,0.6c0.6,0,1-0.3,1.1-1V29.2z
		 M31.4,30.7c0,0.5,0,1.1,0.3,1.5h-2.6C29.1,32,29,31.7,29,31.6h0c-0.5,0.6-1.3,0.8-2.2,0.8c-1.3,0-2.4-0.6-2.4-2
		c0-2.1,2.5-2,3.8-2.3c0.3-0.1,0.7-0.2,0.7-0.6c0-0.4-0.4-0.6-0.8-0.6c-0.8,0-0.9,0.4-1,0.7h-2.4c0.1-1.9,1.9-2.2,3.4-2.2
		c3.2,0,3.2,1.3,3.2,2.6V30.7z"/>
	<path class="st0" d="M41.7,32.2h-2.5v-0.8h0c-0.5,0.7-1.2,1-2.2,1c-1.2,0-2.3-0.7-2.3-2.3v-4.6h2.6V29c0,0.8,0.1,1.3,0.8,1.3
		c0.4,0,1-0.2,1-1.3v-3.5h2.6V32.2z"/>
	<path class="st0" d="M45.1,25.5h2.4v1.1h0c0.4-0.8,1-1.2,1.9-1.2c0.3,0,0.5,0,0.7,0.1v2.3c-0.3-0.1-0.5-0.2-1-0.2
		c-1,0-1.5,0.6-1.5,2v2.6h-2.6V25.5z"/>
</g>
<path class="st0" d="M52.9,25.5h2.6v6.7h-2.6V25.5z M52.9,23h2.6v1.8h-2.6V23z"/>
<g>
	<path class="st0" d="M58.9,25.5h2.5v0.8h0c0.5-0.7,1.2-1,2.2-1c1.2,0,2.3,0.7,2.3,2.3v4.6h-2.6v-3.5c0-0.8-0.1-1.3-0.8-1.3
		c-0.4,0-1,0.2-1,1.3v3.5h-2.6V25.5z"/>
	<path class="st0" d="M72.6,30.2c0.9,0,1-0.9,1-1.6c0-0.7-0.4-1.3-1.1-1.3c-0.7,0-1.1,0.6-1.1,1.3C71.4,29.3,71.7,30.2,72.6,30.2
		 M76.1,31.3c0,1.3-0.3,3.2-3.5,3.2c-1.6,0-3.3-0.4-3.5-2.2h2.5c0,0.1,0.1,0.2,0.1,0.2c0.2,0.2,0.4,0.5,0.7,0.5c0.8,0,1-1,1-1.5
		v-0.6h0c-0.4,0.6-1,0.9-1.8,0.9c-2,0-2.9-1.5-2.9-3.3c0-1.7,1-3.2,2.9-3.2c0.7,0,1.5,0.3,1.8,1h0v-0.8h2.6V31.3z"/>
	<path class="st0" d="M8.5,7.4h2.6v1.8H8.5V7.4z M7.4,16.7h0.4c0.5,0,0.7-0.2,0.7-0.8v-6h2.6v6.2c0,1.1-0.1,1.7-0.6,2.2
		c-0.5,0.4-1.3,0.4-1.9,0.4H7.4V16.7z"/>
	<path class="st0" d="M21.5,16.6h-2.5v-0.8h0c-0.5,0.7-1.2,1-2.2,1c-1.2,0-2.3-0.7-2.3-2.3V9.9h2.6v3.5c0,0.8,0.1,1.3,0.8,1.3
		c0.4,0,1-0.2,1-1.3V9.9h2.6V16.6z"/>
	<path class="st0" d="M25,9.9h2.5v0.8h0c0.5-0.7,1.2-1,2.2-1c1.2,0,2.3,0.7,2.3,2.3v4.6h-2.6v-3.5c0-0.8-0.1-1.3-0.8-1.3
		c-0.4,0-1,0.2-1,1.3v3.5H25V9.9z"/>
	<path class="st0" d="M38.7,14.5c0.9,0,1-0.9,1-1.6c0-0.7-0.4-1.3-1.1-1.3c-0.7,0-1.1,0.6-1.1,1.3C37.6,13.7,37.8,14.5,38.7,14.5
		 M42.2,15.7c0,1.3-0.3,3.2-3.5,3.2c-1.6,0-3.3-0.4-3.5-2.2h2.5c0,0.1,0.1,0.2,0.1,0.2c0.2,0.2,0.4,0.5,0.7,0.5c0.8,0,1-1,1-1.5
		v-0.6h0c-0.4,0.6-1,0.9-1.8,0.9c-2,0-2.9-1.5-2.9-3.3c0-1.7,1-3.2,2.9-3.2c0.7,0,1.5,0.3,1.8,1h0V9.9h2.6V15.7z"/>
</g>
<polygon class="st0" points="54.1,16.6 51.5,16.6 50.5,12.5 50.5,12.5 49.5,16.6 46.9,16.6 44.8,9.9 47.5,9.9 48.4,14 48.5,14 
	49.3,9.9 51.7,9.9 52.6,14 52.6,14 53.6,9.9 56.2,9.9 "/>
<g>
	<path class="st0" d="M63,13.6c-0.3,0.2-0.7,0.2-1,0.3c-0.6,0.1-0.9,0.3-0.9,0.7c0,0.3,0.3,0.6,0.8,0.6c0.6,0,1-0.3,1.1-1V13.6z
		 M65.4,15.1c0,0.5,0,1.1,0.3,1.5h-2.6c-0.1-0.2-0.1-0.5-0.1-0.6h0c-0.5,0.6-1.3,0.8-2.2,0.8c-1.3,0-2.4-0.6-2.4-2
		c0-2.1,2.5-2,3.8-2.3c0.3-0.1,0.7-0.2,0.7-0.6c0-0.5-0.4-0.6-0.8-0.6c-0.8,0-0.9,0.4-1,0.7h-2.4c0.1-1.9,1.9-2.2,3.4-2.2
		c3.2,0,3.2,1.3,3.2,2.6V15.1z"/>
	<path class="st0" d="M73.2,12.4c0-0.3-0.1-0.5-0.3-0.6c-0.2-0.1-0.4-0.2-0.6-0.2c-1,0-1.1,0.8-1.1,1.7c0,0.8,0.1,1.7,1.1,1.7
		c0.6,0,0.9-0.5,1-1h2.4c-0.2,1.8-1.7,2.8-3.5,2.8c-2,0-3.6-1.4-3.6-3.5s1.6-3.5,3.6-3.5c1.8,0,3.2,0.9,3.4,2.7H73.2z"/>
	<path class="st0" d="M78.8,7.4h2.6v3.2h0c0.4-0.5,1-0.9,2.1-0.9c1.2,0,2.3,0.7,2.3,2.3v4.6h-2.6v-3.5c0-0.8-0.1-1.3-0.8-1.3
		c-0.4,0-1,0.2-1,1.3v3.5h-2.6V7.4z"/>
	<path class="st0" d="M92.3,9.9h1.4v1.6h-1.4v2.3c0,0.6,0.1,0.9,0.8,0.9c0.2,0,0.4,0,0.6,0v1.9c-0.5,0-1.1,0.1-1.6,0.1
		c-1.1,0-2.3-0.2-2.3-2v-3.2h-1.1V9.9h1.1v-2h2.6V9.9z"/>
	<path class="st0" d="M12.9,44.7c-0.9,0.4-2,0.2-2,1.1c0,0.3,0.3,0.6,0.8,0.6C12.6,46.3,12.9,45.6,12.9,44.7 M13.1,47.6L13,46.9
		c-0.7,0.7-1.5,0.9-2.5,0.9c-1.2,0-2.4-0.6-2.4-2c0-3,4.7-1.6,4.7-2.9c0-0.5-0.6-0.5-0.9-0.5c-0.4,0-0.9,0.1-0.9,0.6H8.6
		c0-1.4,1-2.2,3.6-2.2c3.1,0,3.3,1.2,3.3,2.7v3.1c0,0.4,0,0.6,0.4,0.8v0.1H13.1z"/>
	<path class="st0" d="M23.1,44.7c-0.9,0.4-2,0.2-2,1.1c0,0.3,0.3,0.6,0.8,0.6C22.8,46.3,23.1,45.6,23.1,44.7 M23.3,47.6l-0.1-0.7
		c-0.7,0.7-1.5,0.9-2.5,0.9c-1.2,0-2.4-0.6-2.4-2c0-3,4.7-1.6,4.7-2.9c0-0.5-0.6-0.5-0.9-0.5c-0.4,0-0.9,0.1-0.9,0.6h-2.5
		c0-1.4,1-2.2,3.6-2.2c3.1,0,3.3,1.2,3.3,2.7v3.1c0,0.4,0,0.6,0.4,0.8v0.1H23.3z"/>
	<path class="st0" d="M28.9,41h2.4v1.3h0c0.4-1,1-1.5,2-1.5c0.1,0,0.2,0,0.3,0v2.6c-0.2,0-0.4-0.1-0.5-0.1c-1.1,0-1.6,0.5-1.6,1.9
		v2.3h-2.6V41z"/>
	<path class="st0" d="M38.9,44.2c0,0.7,0.3,1.3,1,1.3c0.8,0,1.1-0.7,1.1-1.4c0-0.7-0.3-1.4-1.1-1.4C39.1,42.7,38.9,43.3,38.9,44.2
		 M39.2,48c0,0.1,0.1,0.2,0.2,0.3c0.1,0.1,0.3,0.2,0.6,0.2c0.8,0,1.1-0.3,1.1-1.3v-0.5c-0.4,0.4-0.9,0.7-1.9,0.7
		c-1.8,0-2.9-1.4-2.9-3.1c0-1.6,0.8-3.4,3-3.4c0.8,0,1.5,0.4,2,1.1V41h2.3v5.3c0,2-0.2,3.5-3.5,3.5c-2.3,0-3.3-0.9-3.4-1.9H39.2z"/>
	<path class="st0" d="M51,44.7c-0.9,0.4-2,0.2-2,1.1c0,0.3,0.3,0.6,0.8,0.6C50.8,46.3,51.1,45.6,51,44.7 M51.3,47.6l-0.1-0.7
		c-0.7,0.7-1.5,0.9-2.5,0.9c-1.2,0-2.4-0.6-2.4-2c0-3,4.7-1.6,4.7-2.9c0-0.5-0.6-0.5-0.9-0.5c-0.4,0-0.9,0.1-0.9,0.6h-2.5
		c0-1.4,1-2.2,3.6-2.2c3.1,0,3.3,1.2,3.3,2.7v3.1c0,0.4,0,0.6,0.4,0.8v0.1H51.3z"/>
	<path class="st0" d="M64,47.6h-2.4v-1c-0.7,0.9-1.3,1.2-2.4,1.2c-1.4,0-2.4-0.9-2.4-2.8v-4h2.6v3.6c0,0.9,0.3,1.2,0.9,1.2
		c0.8,0,1-0.6,1-1.6V41H64V47.6z"/>
</g>
</svg>
